<?xml version="1.0" encoding="UTF-8"?>
<svg width="64px" height="64px" viewBox="0 0 64 64" version="1.1" xmlns="http://www.w3.org/2000/svg" xmlns:xlink="http://www.w3.org/1999/xlink">
    <!-- Generator: Sketch 61 (89581) - https://sketch.com -->
    <title>编组 36</title>
    <desc>Created with Sketch.</desc>
    <defs>
        <linearGradient x1="45.2771505%" y1="42.6541646%" x2="13.4172567%" y2="14.0181224%" id="linearGradient-1">
            <stop stop-color="#FFFFFF" stop-opacity="0" offset="0%"></stop>
            <stop stop-color="#488FED" offset="100%"></stop>
        </linearGradient>
        <linearGradient x1="46.5450541%" y1="23.3075968%" x2="29.3590881%" y2="7.3452463%" id="linearGradient-2">
            <stop stop-color="#FFFFFF" stop-opacity="0" offset="0%"></stop>
            <stop stop-color="#488FED" offset="100%"></stop>
        </linearGradient>
        <path d="M16,-3.51718654e-13 L29.1428571,4 L29.1428571,17.7964741 C29.1428571,23.0215486 26.0493389,27.7390172 21.2835169,29.8305848 L20.9834884,29.9578695 L16,32 L11.0165116,29.9578695 C6.18162715,27.9766338 2.98943777,23.325366 2.86115802,18.1223612 L2.85714286,17.7964741 L2.85714286,4 L16,-3.51718654e-13 Z M16,1.568 L4.357,5.111 L4.357,17.7964741 C4.357,22.4189195 7.09015471,26.5929135 11.3022926,28.4495613 L11.5852793,28.5698842 L16,30.379 L20.4147207,28.5698842 C24.6919783,26.8171525 27.517974,22.7055436 27.638822,18.1039523 L27.6428571,17.7964741 L27.642,5.111 L16,1.568 Z" id="path-3"></path>
        <filter x="-26.6%" y="-15.6%" width="153.3%" height="143.8%" filterUnits="objectBoundingBox" id="filter-4">
            <feOffset dx="0" dy="2" in="SourceAlpha" result="shadowOffsetOuter1"></feOffset>
            <feGaussianBlur stdDeviation="2" in="shadowOffsetOuter1" result="shadowBlurOuter1"></feGaussianBlur>
            <feColorMatrix values="0 0 0 0 0.0190398743   0 0 0 0 0.35171554   0 0 0 0 0.789053212  0 0 0 1 0" type="matrix" in="shadowBlurOuter1"></feColorMatrix>
        </filter>
    </defs>
    <g id="页面-1" stroke="none" stroke-width="1" fill="none" fill-rule="evenodd">
        <g id="编组-36">
            <rect id="矩形" stroke-opacity="0" stroke="#979797" fill-opacity="0" fill="#D8D8D8" x="0.5" y="0.5" width="63" height="63"></rect>
            <path d="M32,1 C14.8791728,1 1,14.8791728 1,32 C1,49.1208272 14.8791728,63 32,63 C49.1208272,63 63,49.1208272 63,32 C63,14.8791728 49.1208272,1 32,1 Z M32,3 C48.0162577,3 61,15.9837423 61,32 C61,48.0162577 48.0162577,61 32,61 C15.9837423,61 3,48.0162577 3,32 C3,15.9837423 15.9837423,3 32,3 Z" id="椭圆形" fill="url(#linearGradient-1)" fill-rule="nonzero"></path>
            <path d="M32,1 C14.8791728,1 1,14.8791728 1,32 C1,49.1208272 14.8791728,63 32,63 C49.1208272,63 63,49.1208272 63,32 C63,14.8791728 49.1208272,1 32,1 Z M32,3 C48.0162577,3 61,15.9837423 61,32 C61,48.0162577 48.0162577,61 32,61 C15.9837423,61 3,48.0162577 3,32 C3,15.9837423 15.9837423,3 32,3 Z" id="椭圆形" fill="url(#linearGradient-2)" fill-rule="nonzero" transform="translate(32.000000, 32.000000) scale(-1, -1) translate(-32.000000, -32.000000) "></path>
            <circle id="椭圆形" fill="#488FED" cx="32" cy="32" r="26"></circle>
            <g id="编组-4" transform="translate(16.000000, 16.000000)">
                <g id="盾牌、防御、防护">
                    <g id="栅格系统备份-24" opacity="0" fill="#D8D8D8" fill-opacity="0">
                        <rect id="背景层" stroke="#E0E0E0" x="0" y="0" width="32" height="32"></rect>
                        <line x1="-4.05231404e-15" y1="32" x2="32" y2="0" id="路径-8" stroke="#E0E0E0" opacity="0.5"></line>
                        <line x1="0" y1="0" x2="32" y2="32" id="路径-9" stroke="#E0E0E0" opacity="0.5"></line>
                        <rect id="矩形（横）" stroke="#FF7D00" opacity="0.503762091" transform="translate(16.000000, 16.000000) rotate(90.000000) translate(-16.000000, -16.000000) " x="4.5" y="1.07142857" width="23" height="29.8571429"></rect>
                        <rect id="方形" stroke="#FF7D00" opacity="0.503762091" x="2.78571429" y="2.78571429" width="26.4285714" height="26.4285714"></rect>
                        <rect id="矩形（竖）" stroke="#FF7D00" opacity="0.503762091" x="4.5" y="1.07142857" width="23" height="29.8571429"></rect>
                        <circle id="圆形" stroke="#FF7D00" opacity="0.503762091" cx="16" cy="16" r="14.9285714"></circle>
                    </g>
                    <g id="路径-14备份" fill-rule="nonzero">
                        <use fill="black" fill-opacity="1" filter="url(#filter-4)" xlink:href="#path-3"></use>
                        <use fill="#FFFFFF" xlink:href="#path-3"></use>
                    </g>
                </g>
                <path d="M13.802,14.014 C14.474,14 14.936,13.93 15.188,13.79 C15.44,13.636 15.65,13.118 15.79,12.222 L14.53,11.788 C14.446,12.404 14.32,12.74 14.124,12.796 C13.956,12.852 13.746,12.894 13.494,12.894 L12.472,12.894 C12.052,12.894 11.856,12.782 11.856,12.558 L11.856,11.998 C13.2,11.76 14.39,11.438 15.44,11.018 L14.992,9.842 C14.054,10.276 13.004,10.598 11.856,10.808 L11.856,9.562 L10.498,9.562 L10.498,12.852 C10.498,13.188 10.638,13.468 10.918,13.706 C11.17,13.902 11.562,14.014 12.08,14.014 L13.802,14.014 Z M15.986,22.526 C16.434,22.008 16.784,21.28 17.05,20.356 C17.414,20.972 17.82,21.42 18.268,21.7 C18.926,22.092 20.214,22.302 22.146,22.302 L22.426,20.888 C22.006,20.93 21.558,20.958 21.068,20.958 C20.48,20.958 19.962,20.902 19.542,20.804 L19.542,18.438 L21.558,18.438 L21.558,17.248 L19.542,17.248 L19.542,15.19 L20.69,15.19 C20.438,15.568 20.158,15.904 19.864,16.184 L20.844,16.954 C21.306,16.45 21.74,15.792 22.132,15.008 L22.132,13.986 L20.34,13.986 L20.774,13.552 C20.494,13.342 20.2,13.132 19.892,12.922 C20.564,12.334 21.18,11.69 21.712,10.99 L21.712,9.912 L16.238,9.912 L16.238,11.116 L19.976,11.116 C19.556,11.522 19.15,11.886 18.758,12.194 C18.394,11.97 18.002,11.76 17.596,11.536 L16.728,12.362 C17.736,12.936 18.59,13.482 19.262,13.986 L15.692,13.986 L15.692,15.19 L18.282,15.19 L18.282,20.146 C17.946,19.81 17.638,19.362 17.358,18.802 C17.456,18.046 17.512,17.192 17.526,16.24 L16.308,16.24 C16.28,18.928 15.818,20.748 14.922,21.686 L15.986,22.526 Z M11.226,22.582 C11.968,21.91 12.556,21.154 12.99,20.328 C13.522,20.65 14.068,21.07 14.614,21.574 L15.314,20.51 C14.754,20.02 14.124,19.6 13.438,19.25 L13.606,18.648 L15.566,18.648 L15.566,17.43 L13.774,17.43 L13.788,17.01 L13.788,17.01 L13.788,16.296 L15.426,16.296 L15.426,15.05 L11.94,15.05 L12.15,14.462 L11.002,14.196 C10.554,15.498 10.05,16.506 9.462,17.206 L10.274,18.172 C10.386,18.018 10.512,17.864 10.624,17.696 L10.624,18.648 L12.248,18.648 C11.94,19.796 11.254,20.804 10.204,21.7 L11.226,22.582 Z M12.458,17.43 L10.792,17.43 C11.002,17.094 11.212,16.716 11.422,16.296 L12.472,16.296 L12.472,17.01 L12.458,17.43 L12.458,17.43 Z" id="疑" fill="#FFFFFF" fill-rule="nonzero"></path>
            </g>
        </g>
    </g>
</svg>