<?xml version="1.0" standalone="no"?><!DOCTYPE svg PUBLIC "-//W3C//DTD SVG 1.1//EN" "http://www.w3.org/Graphics/SVG/1.1/DTD/svg11.dtd"><svg t="1667619822740" class="icon" viewBox="0 0 1532 1024" version="1.1" xmlns="http://www.w3.org/2000/svg" p-id="36981" xmlns:xlink="http://www.w3.org/1999/xlink" width="299.21875" height="200"><path d="M0 1024V0h1532.928v1024H0z m6.656-6.144h1520.128V6.144H6.656v1011.712z" fill="#231F20" p-id="36982"></path><path d="M3.072 3.072h1526.784v1017.856H3.072V3.072z" fill="#CE1126" p-id="36983"></path><path d="M866.304 325.632c24.064 20.992 35.84 49.152 35.84 85.504 0 29.184-7.68 53.248-22.528 73.216-5.12 6.144-22.016 22.016-50.176 46.592-11.264 9.216-19.456 19.456-25.088 31.232-6.144 11.776-9.728 24.576-9.728 39.424v10.24h-64v-10.24c0-23.04 4.096-41.984 11.776-56.832 7.68-15.872 30.208-40.448 67.584-74.24l10.24-11.264c11.264-14.336 16.896-29.184 16.896-43.52 0-20.48-5.632-36.864-17.408-49.152-11.776-11.776-29.184-17.92-50.688-17.92-27.136 0-46.592 8.704-58.88 25.6-10.752 14.336-16.384 34.816-16.384 60.928h-62.976c0-43.52 12.8-77.824 37.888-102.912 25.088-25.6 59.904-38.4 103.936-38.4 38.912 0 70.144 10.752 93.696 31.744z m-72.704 330.752c8.192 7.68 12.8 17.92 12.8 30.72 0 11.776-4.608 22.528-13.312 31.232-8.704 8.192-18.944 11.776-31.232 11.776-12.288 0-22.528-4.096-31.232-12.8-8.192-8.192-12.8-18.432-12.8-30.72 0-12.8 4.096-23.04 12.8-30.72 8.192-8.192 18.432-11.776 31.232-11.776 13.312 0 24.064 4.096 31.744 12.288z" fill="#FCD116" p-id="36984"></path></svg>