<?xml version="1.0" encoding="UTF-8"?>
<svg width="64px" height="45px" viewBox="0 0 64 45" version="1.1" xmlns="http://www.w3.org/2000/svg" xmlns:xlink="http://www.w3.org/1999/xlink">
    <!-- Generator: Sketch 61 (89581) - https://sketch.com -->
    <title>国外资产</title>
    <desc>Created with Sketch.</desc>
    <defs>
        <linearGradient x1="-0.0720664042%" y1="49.5697872%" x2="99.9280135%" y2="49.5697872%" id="linearGradient-1">
            <stop stop-color="#2E2E2E" offset="0%"></stop>
            <stop stop-color="#4C4C4C" offset="30%"></stop>
            <stop stop-color="#1E1E1E" offset="100%"></stop>
        </linearGradient>
        <linearGradient x1="0.0488484171%" y1="49.1706357%" x2="100.048769%" y2="49.1706357%" id="linearGradient-2">
            <stop stop-color="#2E2E2E" offset="0%"></stop>
            <stop stop-color="#4C4C4C" offset="30%"></stop>
            <stop stop-color="#1E1E1E" offset="100%"></stop>
        </linearGradient>
        <linearGradient x1="43.0210023%" y1="51.8782731%" x2="57.4244015%" y2="48.0761852%" id="linearGradient-3">
            <stop stop-color="#FFFFFF" stop-opacity="0.33" offset="0%"></stop>
            <stop stop-color="#000000" stop-opacity="0.02" offset="40%"></stop>
        </linearGradient>
        <linearGradient x1="0.424210526%" y1="49.9269291%" x2="100.424211%" y2="49.9269291%" id="linearGradient-4">
            <stop stop-color="#2E2E2E" offset="0%"></stop>
            <stop stop-color="#3F3F3F" offset="29%"></stop>
            <stop stop-color="#1E1E1E" offset="100%"></stop>
        </linearGradient>
        <linearGradient x1="49.9666667%" y1="-0.00485119048%" x2="49.9666667%" y2="99.9951488%" id="linearGradient-5">
            <stop stop-color="#4A4A4A" offset="0%"></stop>
            <stop stop-color="#2A2A2A" offset="100%"></stop>
        </linearGradient>
        <linearGradient x1="49.9876202%" y1="0.0305208333%" x2="49.9876202%" y2="100.030521%" id="linearGradient-6">
            <stop stop-color="#3498DB" offset="0%"></stop>
            <stop stop-color="#1A567F" offset="100%"></stop>
        </linearGradient>
        <linearGradient x1="56.9931058%" y1="51.9427845%" x2="42.6306605%" y2="47.9993521%" id="linearGradient-7">
            <stop stop-color="#FFFFFF" stop-opacity="0.23" offset="0%"></stop>
            <stop stop-color="#000000" stop-opacity="0.02" offset="40%"></stop>
        </linearGradient>
        <radialGradient cx="0%" cy="0%" fx="0%" fy="0%" r="142.128603%" gradientTransform="translate(0.000000,0.000000),scale(1.000000,0.989035),translate(-0.000000,-0.000000)" id="radialGradient-8">
            <stop stop-color="#54A0F9" offset="0%"></stop>
            <stop stop-color="#4195F8" offset="100%"></stop>
        </radialGradient>
        <linearGradient x1="50.1205379%" y1="-0.0259699439%" x2="50.1205379%" y2="99.9740851%" id="linearGradient-9">
            <stop stop-color="#A1D979" offset="0%"></stop>
            <stop stop-color="#7AC941" offset="100%"></stop>
        </linearGradient>
    </defs>
    <g id="页面-1" stroke="none" stroke-width="1" fill="none" fill-rule="evenodd">
        <g id="问道-资产管理" transform="translate(-459.000000, -1282.000000)">
            <g id="资产拓扑-对话框" transform="translate(252.000000, 939.000000)">
                <g id="拓扑图1" transform="translate(24.000000, 81.000000)">
                    <g id="国外资产" transform="translate(183.000000, 263.000000)">
                        <g id="国内资产备份" fill-rule="nonzero">
                            <path d="M10.1619562,40.7007516 L10.1619562,41.8651424 C10.1619562,41.8651424 10.0561025,42.6061183 11.1146396,42.6061183 C13.2317138,42.7648989 18.6831798,43.08246 25.7753784,43.08246 C33.0263576,43.08246 37.4192865,42.8178258 38.9541653,42.7119721 C39.5892876,42.7119721 39.5892876,41.8122155 39.5892876,41.8122155 L39.5892876,40.5948979 C39.5892876,40.5948979 20.3239124,43.08246 10.1619562,40.7007516 Z" id="shape304" fill="url(#linearGradient-1)"></path>
                            <path d="M22.2292791,39.2187996 C22.2292791,39.2187996 12.3848841,39.3775802 10.2678099,40.5948979 C8.20366254,41.8122155 33.8731873,42.7119721 39.2717265,40.8595321 C40.7536784,40.3302636 36.4136763,39.2187996 22.2292791,39.2187996 Z" id="shape305" fill="url(#linearGradient-2)"></path>
                            <path d="M22.2292791,39.2187996 C22.2292791,39.2187996 12.3848841,39.3775802 10.2678099,40.5948979 C8.20366254,41.8122155 33.8731873,42.7119721 39.2717265,40.8595321 C40.7536784,40.3302636 36.4136763,39.2187996 22.2292791,39.2187996 Z" id="shape306" fill="url(#linearGradient-3)"></path>
                            <polygon id="shape307" stroke="#313131" stroke-width="0.529268551" fill="url(#linearGradient-4)" points="22.5468403 34.0848947 27.5748915 34.0848947 27.5748915 40.8066053 22.5468403 40.8066053"></polygon>
                            <path d="M0.688049116,0 L49.4866095,0 C49.5924632,0 49.6983169,0.10585371 49.6983169,0.21170742 L49.6983169,35.3551392 C49.6983169,35.4609929 49.5924632,35.5668466 49.4866095,35.5668466 L0.688049116,35.5668466 C0.582195406,35.5668466 0.476341696,35.4609929 0.476341696,35.3551392 L0.476341696,0.21170742 C0.476341696,0.10585371 0.582195406,0 0.688049116,0 Z" id="shape308" stroke="#464646" stroke-width="0.529268551" fill="url(#linearGradient-5)"></path>
                            <polygon id="shape309" stroke="#184B6E" stroke-width="0.529268551" fill="url(#linearGradient-6)" points="3.0697576 2.48756219 47.104901 2.48756219 47.104901 32.9734307 3.0697576 32.9734307"></polygon>
                            <path d="M27.4690378,39.2187996 C27.4690378,39.2187996 38.2131894,39.430507 39.5363607,40.5948979 C41.3888007,42.1827035 15.8251297,42.7119721 10.4265905,40.8595321 C8.94463851,40.3302636 13.2846406,39.2187996 27.4690378,39.2187996 Z" id="shape310" fill="url(#linearGradient-7)"></path>
                        </g>
                        <g id="网络" transform="translate(36.000000, 15.000000)">
                            <path d="M0,14.4869565 C0,6.8173913 6.14782609,0.608695652 13.6956522,0.608695652 C21.3043478,0.608695652 27.4521739,6.8173913 27.4521739,14.4869565 C27.4521739,22.1565217 21.3043478,28.3652174 13.6956522,28.3652174 C6.14782609,28.3652174 0,22.1565217 0,14.4869565 Z" id="shape23" stroke="#4195F8" stroke-width="0.608695652" fill="url(#radialGradient-8)" fill-rule="nonzero"></path>
                            <path d="M4.62608696,4.07826087 C3.22608696,5.6 3.16521739,6.33043478 3.16521739,6.33043478 C3.16521739,6.33043478 2.49565217,7.54782609 2.92173913,7.79130435 C3.40869565,8.03478261 3.53043478,7.66956522 4.07826087,7.66956522 C4.56521739,7.66956522 4.80869565,8.15652174 5.35652174,8.15652174 C5.96521739,8.09565217 6.39130435,7.85217391 6.93913043,7.79130435 C7.48695652,7.73043478 7.91304348,7.85217391 8.15652174,7.60869565 C8.4,7.30434783 8.27826087,7.1826087 8.09565217,7.12173913 C7.91304348,7.06086957 7.24347826,7.48695652 7,7.42608696 C6.75652174,7.42608696 6.51304348,7.30434783 6.51304348,7.30434783 C6.51304348,7.30434783 5.96521739,7.1826087 6.08695652,6.93913043 C6.14782609,6.75652174 6.51304348,6.75652174 6.51304348,6.75652174 L7.42608696,6.69565217 C7.42608696,6.69565217 7.60869565,6.02608696 7.79130435,5.96521739 C8.03478261,5.90434783 8.4,6.02608696 8.64347826,6.39130435 C8.88695652,6.8173913 8.64347826,6.8173913 9.06956522,7.06086957 C9.49565217,7.24347826 9.73913043,7.24347826 9.86086957,7.30434783 C9.9826087,7.36521739 9.9826087,7.42608696 9.9826087,7.54782609 C9.9826087,7.60869565 9.43478261,7.91304348 9.43478261,8.15652174 C9.37391304,8.33913043 9.86086957,8.88695652 9.86086957,8.88695652 C9.86086957,8.88695652 10.5304348,9.49565217 11.0173913,9.25217391 C11.5043478,9.06956522 11.6869565,9.67826087 11.7478261,9.43478261 C11.8086957,9.19130435 11.6869565,8.70434783 11.6869565,8.70434783 C11.6869565,8.70434783 11.6869565,8.15652174 10.9565217,8.09565217 C10.6521739,8.03478261 10.8956522,7.79130435 10.6521739,7.73043478 C10.4086957,7.66956522 10.8347826,7.36521739 10.8347826,7.36521739 C10.8347826,7.36521739 11.3826087,6.87826087 11.3217391,6.75652174 C11.2608696,6.63478261 10.7130435,6.75652174 10.7130435,6.75652174 C10.7130435,6.75652174 10.6521739,6.8173913 10.3478261,6.69565217 C10.0434783,6.57391304 10.3478261,6.20869565 10.3478261,6.20869565 C10.3478261,6.20869565 10.226087,5.7826087 9.9826087,5.84347826 C9.73913043,5.96521739 9.55652174,5.90434783 9.55652174,5.90434783 C9.55652174,5.90434783 9.31304348,5.84347826 9.13043478,5.72173913 C8.94782609,5.53913043 9.37391304,5.23478261 9.86086957,5.29565217 C10.3478261,5.29565217 11.8695652,6.08695652 11.9913043,6.39130435 C12.1130435,6.75652174 11.8086957,6.87826087 11.8086957,6.87826087 C11.8086957,6.87826087 11.8695652,7.42608696 12.1130435,7.42608696 C12.3565217,7.48695652 12.8434783,6.87826087 12.8434783,6.87826087 C12.8434783,6.87826087 13.0869565,6.75652174 13.3913043,6.75652174 C13.6347826,6.75652174 14.5478261,7.1826087 14.5478261,7.1826087 C14.5478261,7.1826087 15.0347826,7.30434783 15.2173913,7.42608696 C15.3391304,7.60869565 15.2782609,7.60869565 15.0347826,7.79130435 C14.8521739,7.97391304 14.1826087,7.85217391 14.1826087,7.85217391 C14.1826087,7.85217391 14.0608696,7.85217391 13.9391304,8.03478261 C13.8782609,8.2173913 13.9391304,8.5826087 14.1826087,8.70434783 C14.3652174,8.82608696 14.973913,8.76521739 15.1565217,8.76521739 C15.2782609,8.76521739 15.3391304,8.94782609 15.2173913,9.13043478 C15.0347826,9.49565217 14.2434783,10.1652174 14.2434783,10.2869565 C14.2434783,10.4695652 14.3652174,10.3478261 14.4869565,10.5304348 C14.5478261,10.7130435 14.5478261,11.0173913 14.6695652,11.1391304 C14.7913043,11.3217391 14.973913,11.5652174 14.973913,11.8695652 C14.973913,12.1130435 14.7913043,12.5391304 14.7913043,12.9043478 C14.7304348,13.2695652 15.0347826,13.5130435 15.0347826,13.6956522 C15.0956522,13.9391304 15.1565217,14.3652174 14.973913,14.5478261 C14.7913043,14.7913043 14.6086957,14.3043478 14.426087,14.1217391 C14.2434783,14 13.9391304,14 13.5130435,14 C13.0869565,14 12.4782609,14.6086957 12.3565217,14.7913043 C12.173913,14.973913 12.0521739,15.4608696 12.0521739,15.8869565 C12.0521739,16.3130435 12.7217391,16.7391304 12.7217391,16.7391304 C12.7217391,16.7391304 12.8434783,16.8608696 13.2086957,16.9217391 C13.573913,16.9826087 14.1217391,16.1913043 14.3043478,16.1913043 C14.4869565,16.1913043 14.4869565,16.6782609 14.4869565,16.6782609 L15.7652174,16.4347826 C15.7652174,16.4347826 16.3130435,16.9826087 16.6173913,17.1043478 C16.8608696,17.1652174 17.2869565,17.1652174 17.5304348,16.9826087 C17.8347826,16.8 18.0782609,15.8869565 18.3217391,15.7043478 C18.626087,15.5217391 19.2347826,15.5826087 19.6608696,15.4608696 C20.0869565,15.3391304 20.6347826,14.7304348 20.8782609,14.5478261 C21.1826087,14.3652174 21.1217391,14.6086957 21.3652174,14.6086957 C21.5478261,14.6695652 22.5217391,14.3043478 22.826087,14.2434783 C23.1304348,14.1217391 23.373913,14.426087 23.6173913,14.426087 C23.8,14.426087 24.0434783,14.3043478 24.0434783,14.3043478 C24.0434783,14.3043478 25.3217391,13.573913 25.626087,13.5130435 C25.9913043,13.4521739 26.173913,13.9391304 26.173913,13.9391304 C26.173913,13.9391304 26.173913,16.8 26.173913,17.1652174 C26.173913,17.5304348 25.9913043,18.3826087 25.8086957,18.9913043 C25.626087,19.5391304 21.5478261,25.3826087 21.1826087,25.3217391 C20.8173913,25.2 22.0956522,22.1565217 21.6086957,21.6695652 C21.1826087,21.1826087 18.9913043,21.0608696 18.2608696,20.6347826 C17.5913043,20.2086957 18.626087,18.7478261 18.2608696,18.5043478 C17.8956522,18.2 16.6173913,18.0782609 16.6173913,18.0782609 C16.6173913,18.0782609 14.426087,17.4695652 14.0608696,17.5913043 C13.6347826,17.6521739 13.026087,18.3217391 12.7217391,18.3826087 C12.4173913,18.5043478 11.0782609,18.5652174 10.7130435,18.3826087 C10.4086957,18.2608696 9.73913043,16.9826087 9.43478261,16.8 C9.13043478,16.6173913 7.79130435,16.0086957 7.66956522,16.3130435 C7.54782609,16.6173913 8.94782609,17.773913 8.88695652,17.8956522 C8.88695652,18.0782609 8.15652174,17.6521739 7.79130435,17.4695652 C7.48695652,17.3478261 7,15.826087 6.69565217,15.5217391 C6.45217391,15.2782609 5.7826087,15.1565217 5.6,14.7913043 C5.47826087,14.3652174 5.6,13.3913043 5.4173913,13.1478261 C5.17391304,12.9652174 3.95652174,11.5652174 4.07826087,11.2608696 C4.2,11.0173913 4.86956522,11.3826087 5.05217391,11.2 C5.23478261,11.0782609 5.35652174,10.7130435 5.17391304,10.6521739 C5.05217391,10.5913043 4.56521739,10.5304348 4.26086957,10.4695652 C3.89565217,10.3478261 3.10434783,9.9826087 2.92173913,9.9826087 C2.73913043,9.9826087 1.88695652,10.2869565 1.76521739,10.1043478 C1.64347826,9.92173913 2.6173913,9.6173913 2.86086957,9.19130435 C3.10434783,8.70434783 3.10434783,8.46086957 3.04347826,8.33913043 C2.92173913,8.2173913 1.27826087,8.46086957 1.27826087,8.46086957 C1.27826087,8.46086957 2.19130435,6.26956522 4.62608696,4.07826087 Z M5.84347826,23.8 C6.26956522,23.8 6.33043478,23.6173913 6.45217391,23.4956522 C6.51304348,23.373913 6.87826087,23.4347826 7.06086957,23.6173913 C7.24347826,23.8608696 7.60869565,23.9217391 7.79130435,24.0434783 C8.03478261,24.1652174 8.03478261,24.7130435 8.03478261,24.7130435 L8.03478261,25.3217391 C8.46086957,25.6869565 10.1043478,25.7478261 10.1043478,26.0521739 C10.0434783,26.173913 9.9826087,26.2347826 9.73913043,26.3565217 C9.43478261,26.4782609 9.43478261,26.6608696 9.13043478,26.6608696 C8.82608696,26.6608696 8.64347826,26.6 8.33913043,26.4173913 C8.03478261,26.2956522 6.45217391,25.5043478 6.20869565,25.3826087 C5.96521739,25.2608696 5.53913043,24.9565217 5.53913043,24.9565217 C5.53913043,24.9565217 5.23478261,24.773913 4.93043478,24.5304348 C4.68695652,24.4086957 4.93043478,24.2869565 4.93043478,24.2869565 C4.93043478,24.2869565 5.23478261,24.226087 5.29565217,24.0434783 C5.35652174,23.9217391 5.4173913,23.8 5.84347826,23.8 Z M8.52173913,4.93043478 C8.88695652,5.11304348 8.82608696,4.74782609 9.13043478,4.68695652 C9.43478261,4.56521739 11.0782609,4.99130435 11.0782609,4.99130435 C11.0782609,4.99130435 12.4782609,5.47826087 12.8434783,5.53913043 C13.2086957,5.66086957 13.573913,5.84347826 13.7565217,5.47826087 C13.9391304,5.17391304 13.026087,4.32173913 13.026087,4.32173913 C13.026087,4.32173913 12.3565217,3.34782609 12.1130435,3.16521739 C11.9304348,3.04347826 11.5043478,2.92173913 11.3826087,3.28695652 C11.0173913,3.53043478 10.5304348,3.10434783 9.86086957,3.22608696 C8.88695652,3.34782609 8.82608696,3.53043478 8.82608696,3.53043478 C8.52173913,4.0173913 8.2173913,4.80869565 8.52173913,4.93043478 Z M13.1478261,2.86086957 C13.3913043,2.73913043 13.6347826,2.9826087 13.6347826,2.9826087 C13.6347826,2.9826087 14.0608696,2.92173913 14.1826087,3.10434783 C14.3043478,3.34782609 13.8782609,3.34782609 13.6956522,3.46956522 C13.573913,3.65217391 13.6347826,4.07826087 13.5130435,4.07826087 C13.3913043,4.13913043 13.3304348,3.95652174 13.3304348,3.95652174 C13.0869565,3.59130435 12.9043478,2.92173913 13.1478261,2.86086957 Z M25.9304348,8.03478261 C25.9304348,8.03478261 25.3217391,8.09565217 24.9565217,8.09565217 C24.5913043,8.09565217 24.4695652,7.66956522 24.4695652,7.66956522 C24.0434783,7.12173913 23.6782609,6.26956522 23.4347826,6.45217391 C23.2521739,6.69565217 22.8869565,6.45217391 22.8869565,6.45217391 L22.4,5.72173913 C22.4,5.72173913 22.2782609,4.68695652 21.8521739,4.56521739 C21.426087,4.50434783 21.0608696,4.13913043 20.8173913,3.89565217 C20.573913,3.65217391 19.6,3.77391304 19.2347826,3.59130435 C18.8086957,3.46956522 18.3826087,3.65217391 18.2608696,3.28695652 C18.2,2.92173913 18.4434783,2.86086957 18.4434783,2.55652174 C18.3826087,2.25217391 18.2608696,1.82608696 18.1391304,1.82608696 C17.9565217,1.82608696 17.8347826,1.94782609 17.8347826,2.37391304 C17.773913,2.73913043 17.1652174,3.34782609 16.8,3.40869565 C16.4347826,3.46956522 16.1304348,3.10434783 16.1304348,3.10434783 C16.1304348,3.10434783 14.973913,2.25217391 14.9130435,2.00869565 C14.7913043,1.76521739 14.3043478,1.82608696 14,1.5826087 C13.6956522,1.27826087 13.5130435,1.5826087 13.0869565,1.5826087 C12.6,1.5826087 12.6,1.52173913 12.3565217,1.46086957 C12.1130435,1.4 12.173913,1.52173913 11.626087,1.52173913 C11.0782609,1.52173913 9.9826087,1.09565217 9.9826087,1.09565217 C9.9826087,1.09565217 14.8521739,-0.426086957 19.3565217,1.88695652 C23.9826087,3.83478261 25.9304348,8.03478261 25.9304348,8.03478261 Z M14.5478261,15.3391304 C14.3652174,15.2173913 14.6086957,15.0347826 14.6086957,15.0347826 C14.6086957,15.0347826 14.8521739,14.8521739 15.0347826,14.7304348 C15.2782609,14.6086957 15.4,14.5478261 15.5826087,14.5478261 C15.7652174,14.5478261 16.6782609,14.7913043 16.6782609,14.7913043 L17.3478261,14.6086957 C17.3478261,14.6086957 17.7130435,14.3043478 17.8347826,14.3043478 C17.9565217,14.3043478 17.8956522,14.5478261 17.8956522,14.5478261 L18.5652174,14 C18.5652174,14 18.626087,13.6956522 18.8695652,13.4521739 C19.0521739,13.2086957 19.2347826,13.1478261 19.5391304,13.1478261 C19.7826087,13.1478261 19.9652174,13.1478261 20.026087,13.2695652 C20.0869565,13.3304348 19.5391304,13.8782609 19.5391304,13.8782609 L18.4434783,14.4869565 L16.9826087,15.4608696 C16.4347826,15.4608696 16.2521739,15.4608696 16.0695652,15.2782609 C15.9478261,15.0956522 16.3130435,14.973913 16.1304348,14.973913 C15.9478261,14.973913 15.7043478,15.0347826 15.7043478,15.0347826 C15.7043478,15.0347826 14.8521739,15.7652174 14.5478261,15.3391304 Z" id="shape24" fill="url(#linearGradient-9)" fill-rule="nonzero"></path>
                            <path d="M2.06956522,7.30434783 C2.06956522,7.30434783 8.15652174,1.15652174 19.2347826,1.88695652" id="shape25" stroke-opacity="0.4" stroke="#FFFFFF" stroke-width="0.608695652"></path>
                            <path d="M0.547826087,11.3217391 C0.547826087,11.3217391 11.5043478,6.26956522 22.6434783,4.13913043" id="shape26" stroke-opacity="0.4" stroke="#FFFFFF" stroke-width="0.608695652"></path>
                            <path d="M0.12173913,14.7304348 C0.12173913,14.7304348 18.7478261,9.92173913 25.0782609,6.87826087" id="shape27" stroke-opacity="0.4" stroke="#FFFFFF" stroke-width="0.608695652"></path>
                            <path d="M0.852173913,19.0521739 C0.852173913,19.0521739 14.6695652,17.6521739 26.6608696,10.3478261" id="shape28" stroke-opacity="0.4" stroke="#FFFFFF" stroke-width="0.608695652"></path>
                            <path d="M2.55652174,22.5217391 C2.55652174,22.5217391 16.5565217,22.0347826 27.2695652,14.0608696" id="shape29" stroke-opacity="0.4" stroke="#FFFFFF" stroke-width="0.608695652"></path>
                            <path d="M5.66086957,25.5652174 C5.66086957,25.5652174 18.7478261,25.2608696 27.026087,17.226087" id="shape30" stroke-opacity="0.4" stroke="#FFFFFF" stroke-width="0.608695652"></path>
                            <path d="M9.19130435,27.573913 C9.19130435,27.573913 18.9304348,27.5130435 25.3826087,21.4869565" id="shape31" stroke-opacity="0.4" stroke="#FFFFFF" stroke-width="0.608695652"></path>
                            <path d="M14.8521739,0.791304348 C30.3130435,9.37391304 23.4347826,24.1043478 23.4347826,24.1043478" id="shape32" stroke-opacity="0.4" stroke="#FFFFFF" stroke-width="0.608695652"></path>
                            <path d="M21.2434783,25.9913043 C21.2434783,25.9913043 24.226087,11.2608696 12.173913,0.913043478" id="shape33" stroke-opacity="0.4" stroke="#FFFFFF" stroke-width="0.608695652"></path>
                            <path d="M9.9826087,1.33913043 C15.0956522,6.87826087 18.8695652,27.0869565 18.8695652,27.0869565" id="shape34" stroke-opacity="0.4" stroke="#FFFFFF" stroke-width="0.608695652"></path>
                            <path d="M16.4347826,28 C16.4347826,28 7.97391304,14.6086957 8.5826087,1.76521739" id="shape35" stroke-opacity="0.4" stroke="#FFFFFF" stroke-width="0.608695652"></path>
                            <path d="M6.69565217,2.73913043 C2.31304348,19.4173913 13.9391304,28.1826087 13.9391304,28.1826087" id="shape36" stroke-opacity="0.4" stroke="#FFFFFF" stroke-width="0.608695652"></path>
                            <path d="M4.74782609,4.26086957 C-3.40869565,19.9652174 11.0173913,27.8782609 11.0173913,27.8782609" id="shape37" stroke-opacity="0.4" stroke="#FFFFFF" stroke-width="0.608695652"></path>
                        </g>
                    </g>
                </g>
            </g>
        </g>
    </g>
</svg>